# xmcd
#
# Track frame offsets:
#	150
#	12547
#	24836
#	41862
#	59134
#	71495
#	90242
#	99240
#	111543
#	124144
#	138121
#	157187
#	177540
#	193566
#	209853
#	229212
#
# Disc length: 3224 seconds
#
# Revision: 0
# Processed by: cddbd v1.5PL3 Copyright (c) Steve Scherf et al.
# Submitted via: dBpowerAMP V4.0
#
DISCID=ec0c9610
DTITLE=Various Artist - Twangfest - Edges from The Postcard 5
DYEAR=2002
DGENRE=Country
TTITLE0=Early In The Morning - Bottle Rockets
TTITLE1=You've Been Honkytonkin - Deke Dickerson
TTITLE2=Since I Laid My Burden Down - Calvin Cook
TTITLE3=Dues - Kelly Hogan
TTITLE4=Straighten Up (And Lie Right) - Dallas Wayne
TTITLE5=Blue Norther - Lucky Pierres
TTITLE6=Me, Myself and I - Roger Wallace
TTITLE7=Where'd Ya Go - Charlie Chesterman
TTITLE8=Death's Bell - Elizabeth Cook
TTITLE9=Flying Time - Marlee MacLeod
TTITLE10=Burdens Rest Easy - Thad Cockrell
TTITLE11=Too Much Fun - Bill Kirchen
TTITLE12=Barelylegal.com - Tommy Womack
TTITLE13=Lost - Karen Poston
TTITLE14=The Devil In Me - Melvern Taylor
TTITLE15=Illinois, 5 A.M. - Kevin Gordon
EXTD=
EXTT0=
EXTT1=
EXTT2=
EXTT3=
EXTT4=
EXTT5=
EXTT6=
EXTT7=
EXTT8=
EXTT9=
EXTT10=
EXTT11=
EXTT12=
EXTT13=
EXTT14=
EXTT15=
PLAYORDER=
